<svg width="150" height="42" viewBox="0 0 150 42" fill="none" xmlns="http://www.w3.org/2000/svg">
<style>
    .text { fill: #D4AF37; font-family: 'Georgia', serif; font-size: 22px; font-weight: 700; }
    .line { stroke: #D4AF37; stroke-width: 1.4; }
</style>

<!-- Plato Head Thin Icon -->
<path class="line" d="M20.5 8.2c-3.8-.5-7.3 1.7-9 5-1.3 2.5-1.3 5.7 0 8.2 1.7 3.3 5.2 5.5 9 5 3.8-.5 7.3-3 8.2-6.7.9-3.4-.3-7.3-2.9-9.5-1.3-1.2-3-1.8-4.7-2zm1.2 3.4c2.2.7 3.7 3 3.4 5.3-.4 2.7-2.9 4.7-5.6 4.3-2.7-.4-4.7-2.9-4.3-5.6.4-2.4 2.7-4.5 5.2-4.1.4 0 .8.1 1.3.1z"/>

<!-- Text -->
<text x="45" y="22" class="text">PLATONAIRE</text>
</svg>

